#!OML:ASF G:\acrobat\cartwheel_test\acrobat_wednesday\Session 1\acrobatwednesday.ASF
:FULLY-SPECIFIED
:DEGREES
287
root 10.0067 14.6994 3.42773 -225.981 88.0883 -220.121
lowerback -0.0901741 -0.604174 0.063351
upperback 2.81685 -0.782346 0.097432
thorax 2.94069 -0.378351 0.0443809
lowerneck -19.7735 -12.4662 -13.6823
upperneck 23.2672 -15.2995 7.66138
head 12.7018 -7.06838 2.37753
rclavicle -5.31749e-015 -4.17448e-015
rhumerus 0 0 0
rradius 0
rwrist 0
rhand 0 0
rfingers 0
rthumb 0 0
lclavicle -5.31749e-015 -4.17448e-015
lhumerus 0 0 0
lradius 0
lwrist 0
lhand 0 0
lfingers 0
lthumb 0 0
rfemur -14.9174 -9.38868 10.1875
rtibia 54.4403
rfoot 9.60166 15.0265
rtoes -13.9175
lfemur -17.5329 8.9674 -9.96205
ltibia 56.1289
lfoot 19.5538 6.72954
ltoes -18.5932
288
root 10.0084 14.7002 3.42642 -226.418 88.0596 -220.538
lowerback -0.10904 -0.585446 0.0457553
upperback 2.84443 -0.756086 0.075028
thorax 2.97969 -0.365155 0.0315668
lowerneck -19.8415 -12.4531 -13.64
upperneck 23.3532 -15.2849 7.64025
head 12.7416 -7.05716 2.36287
rclavicle -3.65344e-015 1.78906e-015
rhumerus 0 0 0
rradius 0
rwrist 0
rhand 0 0
rfingers 0
rthumb 0 0
lclavicle -3.65344e-015 1.78906e-015
lhumerus 0 0 0
lradius 0
lwrist 0
lhand 0 0
lfingers 0
lthumb 0 0
rfemur -14.88 -9.46196 10.1391
rtibia 54.4206
rfoot 9.80574 14.8614
rtoes -15.2637
lfemur -17.4867 8.93361 -10.0053
ltibia 56.1113
lfoot 19.5627 6.90573
ltoes -19.3872
289
root 10.0103 14.7009 3.42591 -226.614 88.0665 -220.704
lowerback -0.122936 -0.551233 0.0608358
upperback 2.86101 -0.709691 0.0452652
thorax 3.00403 -0.341072 -0.00640733
lowerneck -19.8419 -12.4456 -13.5657
upperneck 23.3963 -15.2983 7.62968
head 12.7525 -7.05692 2.34529
rclavicle 5.96975e-015 -9.93923e-016
rhumerus 0 0 0
rradius 0
rwrist 0
rhand 0 0
rfingers 0
rthumb 0 0
lclavicle 5.96975e-015 -9.93923e-016
lhumerus 0 0 0
lradius 0
lwrist 0
lhand 0 0
lfingers 0
lthumb 0 0
rfemur -14.829 -9.4587 10.1398
rtibia 54.4106
rfoot 9.87116 14.8223
rtoes -15.3851
lfemur -17.4259 8.91718 -10.001
ltibia 56.0512
lfoot 19.5486 7.09027
ltoes -20.6008
290
root 10.0116 14.7012 3.42614 -226.149 88.0711 -220.232
lowerback -0.139966 -0.541214 0.0750391
upperback 2.87356 -0.696315 0.0410422
thorax 3.02637 -0.333876 -0.0185706
lowerneck -19.9628 -12.4728 -13.5201
upperneck 23.4921 -15.3254 7.56808
head 12.8072 -7.06696 2.30316
rclavicle -3.19376e-015 1.19271e-015
rhumerus 0 0 0
rradius 0
rwrist 0
rhand 0 0
rfingers 0
rthumb 0 0
lclavicle -3.19376e-015 1.19271e-015
lhumerus 0 0 0
lradius 0
lwrist 0
lhand 0 0
lfingers 0
lthumb 0 0
rfemur -14.8103 -9.43251 10.1636
rtibia 54.4
rfoot 9.90916 14.7899
rtoes -15.6212
lfemur -17.4167 8.87196 -9.9811
ltibia 56.0256
lfoot 19.6619 6.66736
ltoes -18.7149
291
root 10.014 14.7014 3.42551 -225.88 88.0997 -219.972
lowerback -0.17666 -0.545355 0.0868971
upperback 2.89984 -0.70258 0.0722239
thorax 3.07446 -0.336925 0.00610705
lowerneck -20.2537 -12.4907 -13.4687
upperneck 23.691 -15.2868 7.37844
head 12.9155 -7.05737 2.21646
rclavicle -1.94475e-015 -3.57812e-015
rhumerus 0 0 0
rradius 0
rwrist 0
rhand 0 0
rfingers 0
rthumb 0 0
lclavicle -1.94475e-015 -3.57812e-015
lhumerus 0 0 0
lradius 0
lwrist 0
lhand 0 0
lfingers 0
lthumb 0 0
rfemur -14.8006 -9.3879 10.194
rtibia 54.3501
rfoot 9.90912 14.8014
rtoes -15.7759
lfemur -17.4133 8.87187 -9.9522
ltibia 56.0214
lfoot 19.716 6.32181
ltoes -16.6796
292
root 10.0155 14.702 3.424 -226.495 88.1234 -220.623
lowerback -0.200699 -0.544997 0.0909316
upperback 2.90036 -0.70266 0.0854537
thorax 3.08868 -0.337073 0.0171801
lowerneck -20.4698 -12.4563 -13.3937
upperneck 23.8315 -15.1989 7.23258
head 12.9824 -7.0222 2.15758
rclavicle -3.05437e-015 -1.39149e-015
rhumerus 0 0 0
rradius 0
rwrist 0
rhand 0 0
rfingers 0
rthumb 0 0
lclavicle -3.05437e-015 -1.39149e-015
lhumerus 0 0 0
lradius 0
lwrist 0
lhand 0 0
lfingers 0
lthumb 0 0
rfemur -14.8337 -9.35926 10.1934
rtibia 54.3269
rfoot 9.84849 14.8945
rtoes -15.0617
lfemur -17.4342 8.91272 -9.96202
ltibia 56.0166
lfoot 19.5175 6.64043
ltoes -18.3578
293
root 10.0155 14.7032 3.42244 -227.158 88.1208 -221.334
lowerback -0.226975 -0.541614 0.0895301
upperback 2.87871 -0.698464 0.0770126
thorax 3.08105 -0.33514 0.00926956
lowerneck -20.5728 -12.4034 -13.3243
upperneck 23.9333 -15.1242 7.18404
head 13.0237 -6.98472 2.13963
rclavicle 1.07837e-014 -3.77691e-015
rhumerus 0 0 0
rradius 0
rwrist 0
rhand 0 0
rfingers 0
rthumb 0 0
lclavicle 1.07837e-014 -3.77691e-015
lhumerus 0 0 0
lradius 0
lwrist 0
lhand 0 0
lfingers 0
lthumb 0 0
rfemur -14.8889 -9.34215 10.1694
rtibia 54.3146
rfoot 9.70767 14.9946
rtoes -15.3498
lfemur -17.4755 8.93878 -9.99899
ltibia 55.9931
lfoot 19.3988 6.86055
ltoes -20.0908
294
root 10.0157 14.7047 3.42113 -227.219 88.1299 -221.39
lowerback -0.208073 -0.539416 0.120212
upperback 2.86726 -0.695922 0.0660201
thorax 3.05805 -0.333017 -0.0188711
lowerneck -20.5266 -12.2256 -13.1951
upperneck 23.8127 -14.9183 7.21942
head 12.9333 -6.88272 2.18192
rclavicle -7.39735e-015 -7.95139e-016
rhumerus 0 0 0
rradius 0
rwrist 0
rhand 0 0
rfingers 0
rthumb 0 0
lclavicle -7.39735e-015 -7.95139e-016
lhumerus 0 0 0
lradius 0
lwrist 0
lhand 0 0
lfingers 0
lthumb 0 0
rfemur -14.888 -9.28972 10.1777
rtibia 54.3
rfoot 9.60522 15.0103
rtoes -16.9354
lfemur -17.4598 8.93087 -10.0036
ltibia 55.9567
lfoot 19.5572 6.73212
ltoes -19.7229
295
root 10.017 14.7067 3.42088 -226.194 88.1938 -220.336
lowerback -0.190507 -0.521242 0.20132
upperback 2.87615 -0.67285 0.0645917
thorax 3.05639 -0.319286 -0.0649705
lowerneck -20.1777 -11.897 -13.0629
upperneck 23.3211 -14.5748 7.47771
head 12.6407 -6.7073 2.35259
rclavicle 6.66045e-015 -3.18055e-015
rhumerus 0 0 0
rradius 0
rwrist 0
rhand 0 0
rfingers 0
rthumb 0 0
lclavicle 6.66045e-015 -3.18055e-015
lhumerus 0 0 0
lradius 0
lwrist 0
lhand 0 0
lfingers 0
lthumb 0 0
rfemur -14.8398 -9.25379 10.271
rtibia 54.2759
rfoot 9.69413 14.9108
rtoes -17.7783
lfemur -17.409 8.93277 -9.91975
ltibia 55.9378
lfoot 19.6551 6.77784
ltoes -19.6298
296
root 10.0194 14.7085 3.4221 -223.565 88.3045 -217.706
lowerback -0.202763 -0.520671 0.305066
upperback 2.89164 -0.675055 0.112573
thorax 3.07868 -0.318203 -0.0740686
lowerneck -19.9418 -11.6013 -13.0931
upperneck 22.9935 -14.2455 7.8203
head 12.4608 -6.53435 2.56669
rclavicle 4.28086e-015 -5.76476e-015
rhumerus 0 0 0
rradius 0
rwrist 0
rhand 0 0
rfingers 0
rthumb 0 0
lclavicle 4.28086e-015 -5.76476e-015
lhumerus 0 0 0
lradius 0
lwrist 0
lhand 0 0
lfingers 0
lthumb 0 0
rfemur -14.8056 -9.25885 10.4367
rtibia 54.2493
rfoot 9.77123 14.8747
rtoes -17.4351
lfemur -17.3837 8.9796 -9.74438
ltibia 55.9063
lfoot 19.5524 6.89183
ltoes -19.9409
